<svg xmlns="http://www.w3.org/2000/svg" width="35" height="31" viewBox="0 0 35 31" fill="none">

<path fill-rule="evenodd" clip-rule="evenodd" d="M0.44281 7.2748L3.25139 9.29907L10.5097 4.05329L14.1161 6.63852L16.9389 4.6068C14.8479 3.10663 12.6046 1.50193 10.5083 0L0.44281 7.2748Z" fill="black"/>
<path fill-rule="evenodd" clip-rule="evenodd" d="M19.2115 10.3069L36.1185 22.468V18.4232L22.033 8.27734L19.2115 10.3069Z" fill="black"/>
<path fill-rule="evenodd" clip-rule="evenodd" d="M0 12.5769L14.0436 22.6979C14.9834 22.0208 15.9248 21.3448 16.866 20.6688L0 8.52612V12.5769Z" fill="black"/>
<path fill-rule="evenodd" clip-rule="evenodd" d="M25.6086 26.9467L22.0551 24.3942L19.2354 26.4278C21.3576 27.9515 23.4828 29.4751 25.6096 31L35.679 23.7225L32.8712 21.698L25.6086 26.9467Z" fill="black"/>
<path fill-rule="evenodd" clip-rule="evenodd" d="M7.9433 12.7082C8.88238 13.3849 9.82105 14.0618 10.7603 14.7387L25.6086 4.05287L32.8666 9.29865L35.6745 7.27346L25.6095 0L7.9433 12.7082Z" fill="black"/>
<path fill-rule="evenodd" clip-rule="evenodd" d="M30.3409 12.6932C31.2705 13.3636 32.2013 14.0335 33.1312 14.7058L36.1185 12.5591V8.5249C34.1921 9.91391 32.269 11.3051 30.3409 12.6932Z" fill="black"/>
<path fill-rule="evenodd" clip-rule="evenodd" d="M0 18.4398V22.4707C1.91666 21.0889 3.82104 19.7284 5.73821 18.3496C4.79923 17.6726 3.86325 16.9981 2.92767 16.325C1.95102 17.0295 0.975202 17.735 0 18.4398Z" fill="black"/>
<path fill-rule="evenodd" clip-rule="evenodd" d="M10.5089 26.9473L3.24933 21.6992L0.441467 23.7244L10.5083 31.0001L28.0716 18.3391C27.1382 17.6661 26.2079 16.9969 25.2784 16.3276L10.5089 26.9473Z" fill="black"/>
</svg>